<svg xmlns="http://www.w3.org/2000/svg" xmlns:xlink="http://www.w3.org/1999/xlink" fill="none" version="1.1" width="240" height="240" viewBox="0 0 240 240"><g><g style="opacity:0.47999998927116394;"><path d="M204.87034948730468,204.85504201660154C181.4076494873047,228.37844201660158,149.2228494873047,241.08244201660156,116.02494948730468,239.92344201660157C105.85488128730469,239.58544201660158,103.3094594873047,227.45844201660157,108.13296948730469,220.15644201660155C128.96124948730468,188.68144201660158,196.1415494873047,187.49544201660154,225.7918494873047,150.39274201660157C231.6908494873047,142.90964201660157,235.8838494873047,134.22674201660158,238.07684948730468,124.95217201660157C238.7278494873047,122.38253201660156,239.5418494873047,119.52222201660156,239.9718494873047,117.48744201660156C240.68384948730468,150.16874201660156,228.0018494873047,181.71924201660158,204.87034948730468,204.80854201660156L204.87034948730468,204.85504201660154Z" fill-rule="evenodd" fill="#03B2DE" fill-opacity="1"/></g><g style="opacity:0.47999998927116394;"><path d="M204.80063543701172,204.9248080078125C228.3141354370117,181.4524080078125,241.01313543701173,149.2560080078125,239.8551354370117,116.0456080078125C239.51813543701172,105.8601335078125,227.3841354370117,103.3253780078125,220.09613543701172,108.1507180078125C195.53713543701173,124.4173080078125,189.48163543701173,168.9499080078125,170.3038354370117,201.8086080078125C159.3318354370117,220.6562080078125,140.17733543701172,238.0742080078125,117.55913543701172,239.9692080078125C150.2053354370117,240.7072080078125,181.73033543701172,228.0432080078125,204.80063543701172,204.9248080078125Z" fill-rule="evenodd" fill="#8E03FF" fill-opacity="1"/></g><g style="opacity:0.47999998927116394;"><path d="M35.1528,35.2126254216671C58.6178,11.6923254216671,90.801,-1.010564578332901,123.998,0.144673321667099C134.191,0.481865421667099,136.714,12.6207254216671,131.89,19.911125421667098C111.074,51.3862254216671,43.8816,52.5722254216671,14.2316,89.6749254216671C8.33187,97.1580254216671,4.13884,105.8412254216671,1.94617,115.1152254216671C1.29529,117.6382254216671,0.493306,120.4992254216671,0.0283897,122.5332254216671C-0.682948,89.8526254216671,11.9994,58.3026254216671,35.1295,35.2126254216671L35.1528,35.2126254216671Z" fill-rule="evenodd" fill="#00DEB9" fill-opacity="1"/></g><g style="opacity:0.47999998927116394;"><path d="M35.22254624388218,35.1429C11.71114624388218,58.6168,-0.9869337561178206,90.8121,0.16786444388217925,124.022C0.5049282438821793,134.219,12.639246243882178,136.742,19.926746243882178,131.917C51.38994624388218,111.092,52.57554624388218,43.875,89.66414624388219,14.2137C97.14444624388219,8.31177,105.82444624388218,4.11715,115.09544624388218,1.92365C117.66344624388218,1.27252,120.52344624388218,0.470238,122.55744624388218,0.0284002C89.88834624388218,-0.683205,58.35034624388218,12.004,35.26904624388218,35.1429L35.22254624388218,35.1429Z" fill-rule="evenodd" fill="#1D88E1" fill-opacity="1"/></g><g style="opacity:0.47999998927116394;"><path d="M51.169095782470706,218.3660924987793C13.848015782470704,153.9510924987793,262.5083957824707,122.48709249877929,219.7013957824707,53.258192498779295C211.4533957824707,40.9637924987793,201.0123957824707,30.2941124987793,188.9003957824707,21.783092498779297C218.93439578247072,73.3617924987793,72.6714957824707,102.2207924987793,27.470095782470704,145.6600924987793C14.324555782470703,158.2760924987793,12.697345782470704,176.31009249877928,23.274185782470703,191.0880924987793C31.0321957824707,201.6340924987793,40.4534957824707,210.8470924987793,51.169095782470706,218.3660924987793Z" fill-rule="evenodd" fill="#8E03FF" fill-opacity="1"/></g><g style="opacity:0.47999998927116394;"><path d="M218.24858500671388,51.16526064453125C158.49458500671386,16.53917064453125,128.51958500671387,223.34216064453125,70.13768500671387,225.57516064453125C64.94228500671386,225.78416064453126,58.979685006713865,223.24916064453126,53.21478500671387,219.76116064453126C40.92498500671387,211.51016064453125,30.259385006713867,201.06516064453126,21.751585006713867,188.94916064453125C83.13208500671387,224.73816064453126,112.34048500671386,10.46972064453125,172.24458500671386,14.58578754453125C177.69558500671386,14.95786064453125,184.56558500671386,18.73674064453125,190.96958500671386,23.31789064453125C201.50858500671387,31.08556064453125,210.72058500671386,40.509460644531245,218.24858500671388,51.22346064453125L218.24858500671388,51.16526064453125Z" fill-rule="evenodd" fill="#1D88E1" fill-opacity="1"/></g><g style="opacity:0.47999998927116394;"><path d="M204.87034948730468,204.85504201660154C181.4076494873047,228.37844201660158,149.2228494873047,241.08244201660156,116.02494948730468,239.92344201660157C105.85488128730469,239.58544201660158,103.3094594873047,227.45844201660157,108.13296948730469,220.15644201660155C128.96124948730468,188.68144201660158,196.1415494873047,187.49544201660154,225.7918494873047,150.39274201660157C231.6908494873047,142.90964201660157,235.8838494873047,134.22674201660158,238.07684948730468,124.95217201660157C238.7278494873047,122.38253201660156,239.5418494873047,119.52222201660156,239.9718494873047,117.48744201660156C240.68384948730468,150.16874201660156,228.0018494873047,181.71924201660158,204.87034948730468,204.80854201660156L204.87034948730468,204.85504201660154Z" fill-rule="evenodd" fill="#03B2DE" fill-opacity="1"/></g><g style="opacity:0.47999998927116394;"><path d="M204.80063543701172,204.9248080078125C228.3141354370117,181.4524080078125,241.01313543701173,149.2560080078125,239.8551354370117,116.0456080078125C239.51813543701172,105.8601335078125,227.3841354370117,103.3253780078125,220.09613543701172,108.1507180078125C195.53713543701173,124.4173080078125,189.48163543701173,168.9499080078125,170.3038354370117,201.8086080078125C159.3318354370117,220.6562080078125,140.17733543701172,238.0742080078125,117.55913543701172,239.9692080078125C150.2053354370117,240.7072080078125,181.73033543701172,228.0432080078125,204.80063543701172,204.9248080078125Z" fill-rule="evenodd" fill="#8E03FF" fill-opacity="1"/></g><g style="opacity:0.47999998927116394;"><path d="M35.1528,35.2126254216671C58.6178,11.6923254216671,90.801,-1.010564578332901,123.998,0.144673321667099C134.191,0.481865421667099,136.714,12.6207254216671,131.89,19.911125421667098C111.074,51.3862254216671,43.8816,52.5722254216671,14.2316,89.6749254216671C8.33187,97.1580254216671,4.13884,105.8412254216671,1.94617,115.1152254216671C1.29529,117.6382254216671,0.493306,120.4992254216671,0.0283897,122.5332254216671C-0.682948,89.8526254216671,11.9994,58.3026254216671,35.1295,35.2126254216671L35.1528,35.2126254216671Z" fill-rule="evenodd" fill="#00DEB9" fill-opacity="1"/></g><g style="opacity:0.47999998927116394;"><path d="M35.22254624388218,35.1429C11.71114624388218,58.6168,-0.9869337561178206,90.8121,0.16786444388217925,124.022C0.5049282438821793,134.219,12.639246243882178,136.742,19.926746243882178,131.917C51.38994624388218,111.092,52.57554624388218,43.875,89.66414624388219,14.2137C97.14444624388219,8.31177,105.82444624388218,4.11715,115.09544624388218,1.92365C117.66344624388218,1.27252,120.52344624388218,0.470238,122.55744624388218,0.0284002C89.88834624388218,-0.683205,58.35034624388218,12.004,35.26904624388218,35.1429L35.22254624388218,35.1429Z" fill-rule="evenodd" fill="#1D88E1" fill-opacity="1"/></g><g style="opacity:0.47999998927116394;"><path d="M51.169095782470706,218.3660924987793C13.848015782470704,153.9510924987793,262.5083957824707,122.48709249877929,219.7013957824707,53.258192498779295C211.4533957824707,40.9637924987793,201.0123957824707,30.2941124987793,188.9003957824707,21.783092498779297C218.93439578247072,73.3617924987793,72.6714957824707,102.2207924987793,27.470095782470704,145.6600924987793C14.324555782470703,158.2760924987793,12.697345782470704,176.31009249877928,23.274185782470703,191.0880924987793C31.0321957824707,201.6340924987793,40.4534957824707,210.8470924987793,51.169095782470706,218.3660924987793Z" fill-rule="evenodd" fill="#8E03FF" fill-opacity="1"/></g><g style="opacity:0.47999998927116394;"><path d="M218.24858500671388,51.16526064453125C158.49458500671386,16.53917064453125,128.51958500671387,223.34216064453125,70.13768500671387,225.57516064453125C64.94228500671386,225.78416064453126,58.979685006713865,223.24916064453126,53.21478500671387,219.76116064453126C40.92498500671387,211.51016064453125,30.259385006713867,201.06516064453126,21.751585006713867,188.94916064453125C83.13208500671387,224.73816064453126,112.34048500671386,10.46972064453125,172.24458500671386,14.58578754453125C177.69558500671386,14.95786064453125,184.56558500671386,18.73674064453125,190.96958500671386,23.31789064453125C201.50858500671387,31.08556064453125,210.72058500671386,40.509460644531245,218.24858500671388,51.22346064453125L218.24858500671388,51.16526064453125Z" fill-rule="evenodd" fill="#1D88E1" fill-opacity="1"/></g></g></svg>